<?xml version="1.0" encoding="utf-8"?>
<!-- Generator: Adobe Illustrator 17.0.0, SVG Export Plug-In . SVG Version: 6.00 Build 0)  -->
<!DOCTYPE svg PUBLIC "-//W3C//DTD SVG 1.1//EN" "http://www.w3.org/Graphics/SVG/1.1/DTD/svg11.dtd">
<svg version="1.1" id="Layer_1" xmlns="http://www.w3.org/2000/svg" xmlns:xlink="http://www.w3.org/1999/xlink" x="0px" y="0px"
	 width="1000px" height="1000px" viewBox="0 0 1000 1000" enable-background="new 0 0 1000 1000" xml:space="preserve">
<g>
	<path fill="#369BC2" d="M343.859,658.922h-7.2l-0.66-4.68c-2.88,4.14-8.1,5.579-11.939,5.579c-13.02,0-21.359-9.899-21.359-22.318
		c0-12.42,8.34-22.319,21.359-22.319c8.879,0,18.419,4.68,19.379,15.479h-11.159c-0.42-3.66-3.9-5.88-8.46-5.88
		c-7.2,0-9.959,6.3-9.959,12.72c0,6.419,2.76,12.719,9.959,12.719c5.52,0,9.18-2.579,9.84-6.479h-7.8v-8.279h18V658.922z"/>
	<path fill="#369BC2" d="M388.019,641.223c0,12.419-5.7,18.599-18.659,18.599s-18.659-6.18-18.659-18.599v-25.14h11.159v25.8
		c0,5.52,1.98,8.339,7.5,8.339c5.52,0,7.5-2.819,7.5-8.339v-25.8h11.16V641.223z"/>
	<path fill="#369BC2" d="M407.1,616.083h11.339l16.02,42.839h-11.64l-2.64-7.68H405.24l-2.7,7.68H391.08L407.1,616.083z
		 M407.819,642.962h9.72l-4.74-14.999h-0.12L407.819,642.962z"/>
	<path fill="#369BC2" d="M437.7,616.083h21.839c7.5,0,14.999,3.42,14.999,12.06c0,4.62-2.16,9-6.72,10.74v0.12
		c4.5,1.14,5.94,6.18,6.24,10.259c0.18,1.86,0.3,7.98,1.8,9.66h-11.04c-0.96-1.5-1.08-5.58-1.26-6.84c-0.3-4.32-0.96-8.76-6.24-8.76
		h-8.459v15.6H437.7V616.083z M448.859,634.683h9.359c3.36,0,5.16-1.74,5.16-5.04c0-3.18-2.52-4.619-5.64-4.619h-8.879V634.683z"/>
	<path fill="#369BC2" d="M492.659,616.083h11.339l16.02,42.839h-11.64l-2.64-7.68h-14.939l-2.7,7.68h-11.459L492.659,616.083z
		 M493.378,642.962h9.719l-4.739-14.999h-0.12L493.378,642.962z"/>
	<path fill="#369BC2" d="M523.139,616.083h11.459l14.88,26.399h0.12v-26.399h10.499v42.839h-11.459l-14.88-26.699h-0.12v26.699
		h-10.499V616.083z"/>
	<path fill="#369BC2" d="M601.677,625.683h-12.779v33.239h-11.16v-33.239h-12.779v-9.6h36.719V625.683z"/>
	<path fill="#369BC2" d="M606.598,616.083h34.139v8.94h-22.979v7.499h20.999v8.64h-20.999v8.16h23.579v9.6h-34.739V616.083z"/>
	<path fill="#369BC2" d="M647.698,616.083h34.139v8.94h-22.979v7.499h21v8.64h-21v8.16h23.579v9.6h-34.738V616.083z"/>
</g>
<g>
	<path fill="#369BC2" d="M848.042,583.111h3.439l-2-218.465h-21.916l25.535-47.013l-49.662-6.531l16.728-47.213l-50.072,1.318
		l9.135-49.249l-49.249,9.135l1.319-50.072l-47.214,16.727l-6.531-49.662l-44.015,23.907l-14.22-48.028l-39.733,30.498
		l-21.558-45.212l-34.474,36.338l-28.365-41.284l-28.365,41.284l-34.474-36.338l-21.558,45.213l-39.734-30.498l-14.219,48.028
		l-44.016-23.907l-6.531,49.662l-47.213-16.727l1.318,50.072l-49.249-9.135l9.135,49.249l-50.071-1.318l16.727,47.213l-49.662,6.531
		l25.535,47.013h-19.744l1.968,214.946l-31.88,41.535l48.028,14.219l-23.907,44.017l49.662,6.53l-16.727,47.213l50.071-1.318
		l-9.135,49.249l49.249-9.135l-1.318,50.071l47.213-16.727l6.531,49.661l44.016-23.906l14.219,48.028l39.734-30.498l21.558,45.212
		l34.473-36.338l28.365,41.284l28.365-41.284l34.474,36.338l21.558-45.212l39.733,30.498l14.22-48.028l44.015,23.906l6.531-49.661
		l47.214,16.727l-1.319-50.071l49.249,9.135l-9.135-49.249l50.072,1.318l-16.728-47.214l49.662-6.529l-23.906-44.017l48.028-14.219
		L848.042,583.111z M168.747,333.667l45.295-5.957l-15.256-43.063l45.669,1.203l-8.332-44.918l44.919,8.332l-1.203-45.669
		l43.063,15.257l5.957-45.295l40.146,21.805l12.969-43.806l36.24,27.816l19.662-41.237l31.443,33.144l25.871-37.654l25.871,37.654
		l31.442-33.144l19.663,41.237l36.239-27.816l12.97,43.806l40.146-21.805l5.957,45.295l43.062-15.256l-1.202,45.669l44.919-8.332
		l-8.332,44.918l45.67-1.203l-15.257,43.063l45.295,5.957l-15.908,29.291l3.109,1.689h-74.189
		c-22.271-40.197-54.124-74.354-92.965-99.484c-45.165-29.223-97.6-44.668-151.635-44.668c-56.105,0-110.221,16.559-156.498,47.887
		c-36.793,24.908-66.848,57.829-88.121,96.266h-63.877l3.109-1.689L168.747,333.667z M705.745,398.362h8.93l-85.881,144.212h-9.12
		L705.745,398.362z M596.684,437.883c0-20.33,8.74-35.91,30.21-35.91c21.471,0,30.211,15.58,30.211,35.91
		c0,20.331-8.74,35.911-30.211,35.911C605.424,473.794,596.684,458.214,596.684,437.883z M710.305,467.144
		c21.471,0,30.211,15.58,30.211,35.91s-8.74,35.91-30.211,35.91c-21.47,0-30.21-15.58-30.21-35.91S688.835,467.144,710.305,467.144z
		 M256.904,364.647c47.803-82.474,135.989-134.153,233.138-134.153c96.071,0,185.19,51.969,233.088,134.153H256.904z
		 M576.737,469.803c0,35.34-15.2,68.021-53.961,68.021c-37.431,0-51.871-32.681-51.871-68.021c0-35.53,14.44-67.831,51.871-67.831
		C561.537,401.973,576.737,434.273,576.737,469.803z M457.039,469.803c0,35.34-15.2,68.021-53.96,68.021
		c-37.431,0-51.871-32.681-51.871-68.021c0-35.53,14.44-67.831,51.871-67.831C441.839,401.973,457.039,434.273,457.039,469.803z
		 M244.43,454.793v-23.75c18.811,0.57,37.621-6.65,39.141-27.36h26.79v132.432h-34.2v-81.321H244.43z M746.487,583.111
		c-35.52,109.587-139.007,186.396-256.444,186.396c-118.076,0-221.018-76.609-256.456-186.396H746.487z M821.631,663.328
		l-45.296,5.957l15.258,43.062l-45.67-1.201l8.332,44.919l-44.92-8.332l1.203,45.669l-43.062-15.256l-5.957,45.294l-40.146-21.805
		l-12.97,43.806l-36.239-27.816l-19.663,41.237l-31.442-33.143l-25.871,37.653l-25.871-37.653l-31.443,33.143l-19.662-41.237
		l-36.24,27.816l-12.969-43.806l-40.146,21.805l-5.957-45.294l-43.063,15.256l1.203-45.669l-44.919,8.332l8.333-44.919l-45.67,1.201
		l15.257-43.062l-45.295-5.957l21.805-40.146l-43.806-12.969l20.295-26.441l-0.862-0.661h56.915
		c35.811,115.508,143.394,196.396,266.949,196.396c64.778,0,127.92-22.668,177.794-63.828
		c42.037-34.692,73.039-81.051,89.115-132.568h67.246l-0.862,0.661l20.295,26.441l-43.806,12.969L821.631,663.328z"/>
	<path fill="#369BC2" d="M382.368,469.803c0,17.291,1.14,41.801,21.66,41.801c21.28,0,21.851-24.511,21.851-41.801
		c0-17.29-0.57-41.61-21.851-41.61C383.508,428.193,382.368,452.513,382.368,469.803z"/>
	<path fill="#369BC2" d="M502.066,469.803c0,17.291,1.14,41.801,21.66,41.801c21.281,0,21.852-24.511,21.852-41.801
		c0-17.29-0.57-41.61-21.852-41.61C503.206,428.193,502.066,452.513,502.066,469.803z"/>
	<path fill="#369BC2" d="M626.894,410.523c-16.15,0-20.14,15.391-20.14,27.551c0,11.97,3.989,27.17,20.14,27.17
		c15.771,0,20.141-15.2,20.141-27.17C647.034,425.913,642.664,410.523,626.894,410.523z"/>
	<path fill="#369BC2" d="M710.305,530.414c15.771,0,20.141-15.2,20.141-27.171c0-12.16-4.37-27.55-20.141-27.55
		c-16.15,0-20.14,15.39-20.14,27.55C690.165,515.214,694.154,530.414,710.305,530.414z"/>
	<polygon fill="#369BC2" points="946.426,385.89 860.426,395.891 860.426,556.497 946.426,567.497 902.426,477.313 	"/>
	<polygon fill="#369BC2" points="134.953,553.682 134.953,393.076 48.953,383.075 92.953,474.498 48.953,564.683 	"/>
</g>
</svg>
